# xmcd CD database file
#
# Track frame offsets:
#	183
#	9853
#	21040
#	32065
#	44215
#	54298
#	63603
#	74503
#	86015
#	99390
#
# Disc length: 1477 seconds
#
# Revision: 1
# Processed by: cddbd v1.4PL0 Copyright (c) Steve Scherf et al.
# Submitted via: CDex 1.50Beta7
#
DISCID=8005c30a
DTITLE=Various Artist - Classic Country Instrumentals
DYEAR=1900
DGENRE=Country
TTITLE0=Lester Flatt and Earl Scruggs/Foggy Mountain Breakdown 
TTITLE1=Floyd Cramer/Last Date 
TTITLE2=Bill Justis/Raunchy 
TTITLE3=Ace Cannon/Blue Eyes Crying In The Rain 
TTITLE4=Harlow Wilcox and The Oakies/Groovy Grubworm 
TTITLE5=Chet Atkins/Yakety Axe 
TTITLE6=Duane Eddy/Rebel-Rouser 
TTITLE7=Charlie McCoy/Today I Started Loving You Again 
TTITLE8=Hank Thompson and Merle Travis/Wildwood Flower 
TTITLE9=Del Wood/Down Yonder 
EXTD=
EXTT0=
EXTT1=
EXTT2=
EXTT3=
EXTT4=
EXTT5=
EXTT6=
EXTT7=
EXTT8=
EXTT9=
PLAYORDER=
